<?xml version="1.0" encoding="utf-8"?>
<svg xmlns="http://www.w3.org/2000/svg" version="1.1" width="2500" height="2500">

<line x1="300" y1="200" x2="300" y2="300" stroke="black" />
<text x="300" y="250" stroke="FireBrick" stroke-width="2" fill="FireBrick" style="text-anchor: middle" >1</text>
<text x="300" y="250" stroke="FireBrick" stroke-width="0" fill="white" style="text-anchor: middle" >1</text>
<line x1="200" y1="300" x2="300" y2="300" stroke="black" />
<text x="250" y="300" stroke="FireBrick" stroke-width="2" fill="FireBrick" style="text-anchor: middle" >1</text>
<text x="250" y="300" stroke="FireBrick" stroke-width="0" fill="white" style="text-anchor: middle" >1</text>
<line x1="300" y1="300" x2="400" y2="300" stroke="black" />
<text x="350" y="300" stroke="FireBrick" stroke-width="2" fill="FireBrick" style="text-anchor: middle" >1</text>
<text x="350" y="300" stroke="FireBrick" stroke-width="0" fill="white" style="text-anchor: middle" >1</text>
<line x1="300" y1="300" x2="300" y2="400" stroke="black" />
<text x="300" y="350" stroke="FireBrick" stroke-width="2" fill="FireBrick" style="text-anchor: middle" >1</text>
<text x="300" y="350" stroke="FireBrick" stroke-width="0" fill="white" style="text-anchor: middle" >1</text>
<line x1="300" y1="200" x2="400" y2="300" stroke="black" />
<text x="350" y="250" stroke="FireBrick" stroke-width="2" fill="FireBrick" style="text-anchor: middle" >1</text>
<text x="350" y="250" stroke="FireBrick" stroke-width="0" fill="white" style="text-anchor: middle" >1</text>
<line x1="300" y1="400" x2="400" y2="500" stroke="black" />
<text x="350" y="450" stroke="FireBrick" stroke-width="2" fill="FireBrick" style="text-anchor: middle" >1</text>
<text x="350" y="450" stroke="FireBrick" stroke-width="0" fill="white" style="text-anchor: middle" >1</text>
<line x1="200" y1="300" x2="300" y2="400" stroke="black" />
<text x="250" y="350" stroke="FireBrick" stroke-width="2" fill="FireBrick" style="text-anchor: middle" >1</text>
<text x="250" y="350" stroke="FireBrick" stroke-width="0" fill="white" style="text-anchor: middle" >1</text>
<line x1="200" y1="300" x2="400" y2="500" stroke="black" />
<text x="300" y="400" stroke="FireBrick" stroke-width="2" fill="FireBrick" style="text-anchor: middle" >1</text>
<text x="300" y="400" stroke="FireBrick" stroke-width="0" fill="white" style="text-anchor: middle" >1</text>
<circle cx="300" cy="200" r="10" fill="pink" />
<circle cx="300" cy="200" r="10" fill="none" stroke="Black" stroke-width="1" />
<text x="300" y="230" stroke="Black" stroke-width="0" fill="Black" style="text-anchor: middle" >A</text>
<circle cx="200" cy="300" r="10" fill="pink" />
<circle cx="200" cy="300" r="10" fill="none" stroke="Black" stroke-width="1" />
<text x="200" y="330" stroke="Black" stroke-width="0" fill="Black" style="text-anchor: middle" >B</text>
<circle cx="300" cy="300" r="10" fill="pink" />
<circle cx="300" cy="300" r="10" fill="none" stroke="Black" stroke-width="1" />
<text x="300" y="330" stroke="Black" stroke-width="0" fill="Black" style="text-anchor: middle" >C</text>
<circle cx="400" cy="300" r="10" fill="pink" />
<circle cx="400" cy="300" r="10" fill="none" stroke="Black" stroke-width="1" />
<text x="400" y="330" stroke="Black" stroke-width="0" fill="Black" style="text-anchor: middle" >D</text>
<circle cx="300" cy="400" r="10" fill="pink" />
<circle cx="300" cy="400" r="10" fill="none" stroke="Black" stroke-width="1" />
<text x="300" y="430" stroke="Black" stroke-width="0" fill="Black" style="text-anchor: middle" >E</text>
<circle cx="400" cy="500" r="10" fill="pink" />
<circle cx="400" cy="500" r="10" fill="none" stroke="Black" stroke-width="1" />
<text x="400" y="530" stroke="Black" stroke-width="0" fill="Black" style="text-anchor: middle" >F</text>


</svg>
