<?xml version="1.0" encoding="utf-8"?>
<svg xmlns="http://www.w3.org/2000/svg" version="1.1" width="1200" height="1200">

<line x1="300" y1="200" x2="400" y2="300" stroke="black" />
<text x="350" y="275" stroke="FireBrick" stroke-width="2.5" fill="FireBrick" style="text-anchor: middle" >10</text>
<text x="350" y="275" stroke="FireBrick" stroke-width="0" fill="white" style="text-anchor: middle" >10</text>
<line x1="700" y1="200" x2="600" y2="300" stroke="black" />
<text x="650" y="275" stroke="FireBrick" stroke-width="2.5" fill="FireBrick" style="text-anchor: middle" >5</text>
<text x="650" y="275" stroke="FireBrick" stroke-width="0" fill="white" style="text-anchor: middle" >5</text>
<line x1="200" y1="300" x2="400" y2="300" stroke="black" />
<text x="300" y="325" stroke="FireBrick" stroke-width="2.5" fill="FireBrick" style="text-anchor: middle" >7</text>
<text x="300" y="325" stroke="FireBrick" stroke-width="0" fill="white" style="text-anchor: middle" >7</text>
<line x1="400" y1="300" x2="500" y2="300" stroke="black" />
<text x="450" y="325" stroke="FireBrick" stroke-width="2.5" fill="FireBrick" style="text-anchor: middle" >3</text>
<text x="450" y="325" stroke="FireBrick" stroke-width="0" fill="white" style="text-anchor: middle" >3</text>
<line x1="500" y1="300" x2="600" y2="300" stroke="black" />
<text x="550" y="325" stroke="FireBrick" stroke-width="2.5" fill="FireBrick" style="text-anchor: middle" >1</text>
<text x="550" y="325" stroke="FireBrick" stroke-width="0" fill="white" style="text-anchor: middle" >1</text>
<line x1="600" y1="300" x2="800" y2="300" stroke="black" />
<text x="700" y="325" stroke="FireBrick" stroke-width="2.5" fill="FireBrick" style="text-anchor: middle" >15</text>
<text x="700" y="325" stroke="FireBrick" stroke-width="0" fill="white" style="text-anchor: middle" >15</text>
<line x1="300" y1="400" x2="400" y2="300" stroke="black" />
<text x="350" y="375" stroke="FireBrick" stroke-width="2.5" fill="FireBrick" style="text-anchor: middle" >9</text>
<text x="350" y="375" stroke="FireBrick" stroke-width="0" fill="white" style="text-anchor: middle" >9</text>
<line x1="700" y1="400" x2="600" y2="300" stroke="black" />
<text x="650" y="375" stroke="FireBrick" stroke-width="2.5" fill="FireBrick" style="text-anchor: middle" >8</text>
<text x="650" y="375" stroke="FireBrick" stroke-width="0" fill="white" style="text-anchor: middle" >8</text>
<circle cx="300" cy="200" r="10" fill="rgb(90,0,164)" />
<circle cx="300" cy="200" r="10" fill="none" stroke="Black" stroke-width="1" />
<text x="300" y="230" stroke="Black" stroke-width="0" fill="Black" style="text-anchor: middle" >A</text>
<circle cx="700" cy="200" r="10" fill="rgb(90,0,164)" />
<circle cx="700" cy="200" r="10" fill="none" stroke="Black" stroke-width="1" />
<text x="700" y="230" stroke="Black" stroke-width="0" fill="Black" style="text-anchor: middle" >B</text>
<circle cx="200" cy="300" r="10" fill="rgb(90,0,164)" />
<circle cx="200" cy="300" r="10" fill="none" stroke="Black" stroke-width="1" />
<text x="200" y="330" stroke="Black" stroke-width="0" fill="Black" style="text-anchor: middle" >C</text>
<circle cx="400" cy="300" r="10" fill="rgb(90,0,164)" />
<circle cx="400" cy="300" r="10" fill="none" stroke="Black" stroke-width="1" />
<text x="400" y="330" stroke="Black" stroke-width="0" fill="Black" style="text-anchor: middle" >D</text>
<circle cx="500" cy="300" r="10" fill="rgb(90,0,164)" />
<circle cx="500" cy="300" r="10" fill="none" stroke="Black" stroke-width="1" />
<text x="500" y="330" stroke="Black" stroke-width="0" fill="Black" style="text-anchor: middle" >E</text>
<circle cx="600" cy="300" r="10" fill="rgb(90,0,164)" />
<circle cx="600" cy="300" r="10" fill="none" stroke="Black" stroke-width="1" />
<text x="600" y="330" stroke="Black" stroke-width="0" fill="Black" style="text-anchor: middle" >F</text>
<circle cx="800" cy="300" r="10" fill="rgb(0,0,255)" />
<circle cx="800" cy="300" r="10" fill="none" stroke="Black" stroke-width="1" />
<text x="800" y="330" stroke="Black" stroke-width="0" fill="Black" style="text-anchor: middle" >G</text>
<circle cx="300" cy="400" r="10" fill="rgb(90,0,164)" />
<circle cx="300" cy="400" r="10" fill="none" stroke="Black" stroke-width="1" />
<text x="300" y="430" stroke="Black" stroke-width="0" fill="Black" style="text-anchor: middle" >H</text>
<circle cx="700" cy="400" r="10" fill="rgb(90,0,164)" />
<circle cx="700" cy="400" r="10" fill="none" stroke="Black" stroke-width="1" />
<text x="700" y="430" stroke="Black" stroke-width="0" fill="Black" style="text-anchor: middle" >I</text>


</svg>
