<?xml version="1.0" encoding="utf-8"?>
<svg xmlns="http://www.w3.org/2000/svg" version="1.1" width="1200" height="1200">

<line x1="400" y1="200" x2="300" y2="300" stroke="black" />
<text x="350" y="275" stroke="SteelBlue" stroke-width="2.5" fill="white" style="text-anchor: middle" >2</text>
<text x="350" y="275" stroke="SteelBlue" stroke-width="0" fill="white" style="text-anchor: middle" >2</text>
<line x1="400" y1="200" x2="500" y2="300" stroke="black" />
<text x="450" y="275" stroke="SteelBlue" stroke-width="2.5" fill="white" style="text-anchor: middle" >5</text>
<text x="450" y="275" stroke="SteelBlue" stroke-width="0" fill="white" style="text-anchor: middle" >5</text>
<line x1="300" y1="300" x2="400" y2="400" stroke="black" />
<text x="350" y="375" stroke="SteelBlue" stroke-width="2.5" fill="white" style="text-anchor: middle" >3</text>
<text x="350" y="375" stroke="SteelBlue" stroke-width="0" fill="white" style="text-anchor: middle" >3</text>
<line x1="500" y1="300" x2="400" y2="400" stroke="black" />
<text x="450" y="375" stroke="SteelBlue" stroke-width="2.5" fill="white" style="text-anchor: middle" >4</text>
<text x="450" y="375" stroke="SteelBlue" stroke-width="0" fill="white" style="text-anchor: middle" >4</text>
<line x1="400" y1="400" x2="300" y2="500" stroke="black" />
<text x="350" y="475" stroke="SteelBlue" stroke-width="2.5" fill="white" style="text-anchor: middle" >6</text>
<text x="350" y="475" stroke="SteelBlue" stroke-width="0" fill="white" style="text-anchor: middle" >6</text>
<line x1="400" y1="400" x2="500" y2="500" stroke="black" />
<text x="450" y="475" stroke="SteelBlue" stroke-width="2.5" fill="white" style="text-anchor: middle" >2</text>
<text x="450" y="475" stroke="SteelBlue" stroke-width="0" fill="white" style="text-anchor: middle" >2</text>
<line x1="300" y1="300" x2="200" y2="600" stroke="black" />
<text x="250" y="475" stroke="SteelBlue" stroke-width="2.5" fill="white" style="text-anchor: middle" >5</text>
<text x="250" y="475" stroke="SteelBlue" stroke-width="0" fill="white" style="text-anchor: middle" >5</text>
<line x1="500" y1="300" x2="600" y2="600" stroke="black" />
<text x="550" y="475" stroke="SteelBlue" stroke-width="2.5" fill="white" style="text-anchor: middle" >1</text>
<text x="550" y="475" stroke="SteelBlue" stroke-width="0" fill="white" style="text-anchor: middle" >1</text>
<line x1="300" y1="500" x2="400" y2="500" stroke="black" />
<text x="350" y="525" stroke="SteelBlue" stroke-width="2.5" fill="white" style="text-anchor: middle" >3</text>
<text x="350" y="525" stroke="SteelBlue" stroke-width="0" fill="white" style="text-anchor: middle" >3</text>
<line x1="400" y1="500" x2="500" y2="500" stroke="black" />
<text x="450" y="525" stroke="SteelBlue" stroke-width="2.5" fill="white" style="text-anchor: middle" >6</text>
<text x="450" y="525" stroke="SteelBlue" stroke-width="0" fill="white" style="text-anchor: middle" >6</text>
<line x1="500" y1="500" x2="600" y2="600" stroke="black" />
<text x="550" y="575" stroke="SteelBlue" stroke-width="2.5" fill="white" style="text-anchor: middle" >3</text>
<text x="550" y="575" stroke="SteelBlue" stroke-width="0" fill="white" style="text-anchor: middle" >3</text>
<line x1="300" y1="500" x2="200" y2="600" stroke="black" />
<text x="250" y="575" stroke="SteelBlue" stroke-width="2.5" fill="white" style="text-anchor: middle" >9</text>
<text x="250" y="575" stroke="SteelBlue" stroke-width="0" fill="white" style="text-anchor: middle" >9</text>
<circle cx="400" cy="200" r="10" fill="pink" />
<circle cx="400" cy="200" r="10" fill="none" stroke="black" stroke-width="1" />
<text x="395" y="230" fill="black" >A</text>
<circle cx="300" cy="300" r="10" fill="pink" />
<circle cx="300" cy="300" r="10" fill="none" stroke="black" stroke-width="1" />
<text x="295" y="330" fill="black" >B</text>
<circle cx="500" cy="300" r="10" fill="pink" />
<circle cx="500" cy="300" r="10" fill="none" stroke="black" stroke-width="1" />
<text x="495" y="330" fill="black" >C</text>
<circle cx="400" cy="400" r="10" fill="pink" />
<circle cx="400" cy="400" r="10" fill="none" stroke="black" stroke-width="1" />
<text x="395" y="430" fill="black" >D</text>
<circle cx="300" cy="500" r="10" fill="pink" />
<circle cx="300" cy="500" r="10" fill="none" stroke="black" stroke-width="1" />
<text x="295" y="530" fill="black" >E</text>
<circle cx="400" cy="500" r="10" fill="pink" />
<circle cx="400" cy="500" r="10" fill="none" stroke="black" stroke-width="1" />
<text x="395" y="530" fill="black" >F</text>
<circle cx="500" cy="500" r="10" fill="pink" />
<circle cx="500" cy="500" r="10" fill="none" stroke="black" stroke-width="1" />
<text x="495" y="530" fill="black" >G</text>
<circle cx="200" cy="600" r="10" fill="pink" />
<circle cx="200" cy="600" r="10" fill="none" stroke="black" stroke-width="1" />
<text x="195" y="630" fill="black" >H</text>
<circle cx="600" cy="600" r="10" fill="pink" />
<circle cx="600" cy="600" r="10" fill="none" stroke="black" stroke-width="1" />
<text x="595" y="630" fill="black" >I</text>


</svg>
